<?xml version="1.0" standalone="no"?>
<!DOCTYPE svg PUBLIC "-//W3C//DTD SVG 20010904//EN"
 "http://www.w3.org/TR/2001/REC-SVG-20010904/DTD/svg10.dtd">
<svg version="1.0" xmlns="http://www.w3.org/2000/svg"
 width="384.000000pt" height="384.000000pt" viewBox="0 0 384.000000 384.000000"
 preserveAspectRatio="xMidYMid meet">
<metadata>
Created by potrace 1.14, written by Peter Selinger 2001-2017
</metadata>
<g transform="translate(0.000000,384.000000) scale(0.100000,-0.100000)"
fill="#000000" stroke="none">
<path d="M435 3317 c-77 -25 -135 -84 -163 -164 -16 -43 -18 -101 -17 -603 1
-538 2 -556 22 -601 27 -60 72 -105 134 -134 l50 -23 730 -1 729 0 0 649 c0
670 -3 726 -41 772 -40 48 -73 78 -86 78 -7 0 -13 4 -13 9 0 26 -126 31 -710
29 -370 0 -617 -5 -635 -11z m432 -255 c6 -4 16 -19 21 -32 4 -14 8 -230 8
-481 -1 -434 -2 -458 -20 -478 -24 -26 -67 -27 -90 -2 -17 18 -18 55 -18 485
-1 417 1 468 16 491 17 25 57 34 83 17z m527 -147 c13 -19 15 -75 13 -364 -2
-373 -2 -373 -62 -373 -37 0 -58 24 -61 72 -1 23 -4 43 -7 46 -3 3 -2 18 3 32
4 15 3 37 -1 50 -5 12 -5 22 -1 22 4 0 6 24 4 52 -2 29 -3 59 -3 66 1 14 1 96
0 115 0 6 1 33 2 59 2 26 0 50 -3 53 -3 4 -3 18 1 33 4 15 4 44 1 64 -16 85
70 140 114 73z m-265 -117 c23 -14 22 -1 23 -258 0 -91 -3 -177 -7 -192 -14
-55 -101 -54 -115 2 -3 14 -6 117 -5 229 1 198 1 204 23 221 24 20 47 19 81
-2z m-525 -119 c29 -14 34 -31 34 -129 1 -85 -19 -120 -64 -115 -47 5 -61 29
-62 108 -2 94 4 122 31 135 29 14 32 14 61 1z m1035 -8 c22 -17 25 -27 26 -97
2 -89 -12 -129 -47 -137 -62 -16 -80 12 -83 128 -2 84 17 119 70 124 6 0 21
-8 34 -18z"/>
<path d="M2179 3070 c-5 -27 -4 -237 2 -245 5 -7 164 -10 448 -10 292 0 441
-3 442 -10 0 -5 1 -466 2 -1023 l2 -1012 -50 0 c-381 -4 -1477 -1 -1482 4 -4
3 -7 176 -7 384 l-1 377 -125 1 c-69 0 -128 -4 -131 -9 -3 -4 -3 -26 1 -48 4
-22 3 -42 -1 -45 -5 -3 -6 -10 -3 -16 4 -6 6 -52 5 -102 -1 -50 -1 -98 -1
-106 0 -8 0 -26 -1 -40 0 -14 0 -32 0 -40 1 -8 1 -26 0 -40 0 -14 0 -32 0 -40
1 -8 1 -26 0 -40 0 -14 0 -32 0 -40 1 -8 1 -26 0 -40 0 -14 0 -31 0 -37 1 -19
2 -43 1 -83 -2 -106 25 -177 91 -233 79 -68 40 -66 951 -64 l823 2 40 23 c57
34 88 66 116 120 l24 47 2 1074 c2 1037 1 1076 -18 1125 -24 64 -65 109 -132
142 l-51 26 -473 2 c-260 0 -473 -1 -474 -4z"/>
<path d="M2235 2432 l-60 -3 0 -117 c0 -64 3 -122 7 -127 4 -7 102 -10 276
-10 l270 1 36 27 c75 58 63 181 -22 216 -28 12 -363 20 -507 13z"/>
<path d="M2175 1793 l0 -128 270 0 c292 -1 307 1 346 55 48 66 19 161 -59 191
-13 5 -143 9 -290 9 l-267 0 0 -127z"/>
<path d="M1858 1391 c-89 -47 -87 -179 3 -223 30 -14 81 -16 454 -15 403 2
421 3 447 22 36 27 53 60 53 105 0 49 -17 80 -59 107 -33 21 -40 21 -449 21
-377 1 -418 -1 -449 -17z"/>
</g>
</svg>
